<mxfile host="app.diagrams.net" modified="2023-08-29T22:07:11.439Z" agent="Mozilla/5.0 (Macintosh; Intel Mac OS X 10_15_7) AppleWebKit/537.36 (KHTML, like Gecko) Chrome/116.0.0.0 Safari/537.36" etag="ZKOgkIh2rPkJJnPGv2lm" version="21.6.9" type="device">
  <diagram name="Page-1" id="Cv-ml-Bs34ypVwaoHnj-">
    <mxGraphModel dx="1434" dy="729" grid="1" gridSize="10" guides="1" tooltips="1" connect="1" arrows="1" fold="1" page="1" pageScale="1" pageWidth="827" pageHeight="1169" math="0" shadow="0">
      <root>
        <mxCell id="0" />
        <mxCell id="1" parent="0" />
        <mxCell id="AuHmO0e03ynSPj7Tn1H6-3" value="" style="edgeStyle=orthogonalEdgeStyle;rounded=0;orthogonalLoop=1;jettySize=auto;html=1;" parent="1" source="AuHmO0e03ynSPj7Tn1H6-1" target="AuHmO0e03ynSPj7Tn1H6-20" edge="1">
          <mxGeometry relative="1" as="geometry">
            <mxPoint x="550" y="180" as="targetPoint" />
          </mxGeometry>
        </mxCell>
        <mxCell id="AuHmO0e03ynSPj7Tn1H6-1" value="" style="ellipse;whiteSpace=wrap;html=1;aspect=fixed;" parent="1" vertex="1">
          <mxGeometry x="384" y="40" width="30" height="30" as="geometry" />
        </mxCell>
        <mxCell id="AuHmO0e03ynSPj7Tn1H6-6" value="" style="edgeStyle=orthogonalEdgeStyle;rounded=0;orthogonalLoop=1;jettySize=auto;html=1;" parent="1" source="AuHmO0e03ynSPj7Tn1H6-2" target="AuHmO0e03ynSPj7Tn1H6-18" edge="1">
          <mxGeometry relative="1" as="geometry">
            <mxPoint x="270" y="320" as="targetPoint" />
          </mxGeometry>
        </mxCell>
        <mxCell id="AuHmO0e03ynSPj7Tn1H6-11" value="Query" style="edgeLabel;html=1;align=center;verticalAlign=middle;resizable=0;points=[];" parent="AuHmO0e03ynSPj7Tn1H6-6" vertex="1" connectable="0">
          <mxGeometry x="-0.1556" y="1" relative="1" as="geometry">
            <mxPoint x="18" y="-1" as="offset" />
          </mxGeometry>
        </mxCell>
        <mxCell id="AuHmO0e03ynSPj7Tn1H6-13" value="" style="edgeStyle=orthogonalEdgeStyle;rounded=0;orthogonalLoop=1;jettySize=auto;html=1;entryX=0;entryY=0.5;entryDx=0;entryDy=0;" parent="1" source="AuHmO0e03ynSPj7Tn1H6-2" target="AuHmO0e03ynSPj7Tn1H6-38" edge="1">
          <mxGeometry relative="1" as="geometry">
            <mxPoint x="590" y="450" as="targetPoint" />
          </mxGeometry>
        </mxCell>
        <mxCell id="AuHmO0e03ynSPj7Tn1H6-39" value="Submit Changes" style="edgeLabel;html=1;align=center;verticalAlign=middle;resizable=0;points=[];" parent="AuHmO0e03ynSPj7Tn1H6-13" vertex="1" connectable="0">
          <mxGeometry x="-0.2" relative="1" as="geometry">
            <mxPoint x="-28" as="offset" />
          </mxGeometry>
        </mxCell>
        <mxCell id="AuHmO0e03ynSPj7Tn1H6-2" value="Did user make query or submit changes?" style="rhombus;whiteSpace=wrap;html=1;" parent="1" vertex="1">
          <mxGeometry x="330" y="380" width="140" height="80" as="geometry" />
        </mxCell>
        <mxCell id="AuHmO0e03ynSPj7Tn1H6-8" value="" style="edgeStyle=orthogonalEdgeStyle;rounded=0;orthogonalLoop=1;jettySize=auto;html=1;" parent="1" source="AuHmO0e03ynSPj7Tn1H6-5" target="AuHmO0e03ynSPj7Tn1H6-7" edge="1">
          <mxGeometry relative="1" as="geometry" />
        </mxCell>
        <mxCell id="AuHmO0e03ynSPj7Tn1H6-5" value="Query is passed to db to return current monthly contributions" style="rounded=1;whiteSpace=wrap;html=1;" parent="1" vertex="1">
          <mxGeometry x="130" y="710" width="120" height="60" as="geometry" />
        </mxCell>
        <mxCell id="AuHmO0e03ynSPj7Tn1H6-7" value="Monthly contributions are returned" style="whiteSpace=wrap;html=1;rounded=1;" parent="1" vertex="1">
          <mxGeometry x="130" y="850" width="120" height="60" as="geometry" />
        </mxCell>
        <mxCell id="AuHmO0e03ynSPj7Tn1H6-9" value="" style="ellipse;whiteSpace=wrap;html=1;aspect=fixed;" parent="1" vertex="1">
          <mxGeometry x="384" y="1040" width="40" height="40" as="geometry" />
        </mxCell>
        <mxCell id="AuHmO0e03ynSPj7Tn1H6-10" value="" style="endArrow=classic;html=1;rounded=0;exitX=0.75;exitY=1;exitDx=0;exitDy=0;entryX=0;entryY=0.5;entryDx=0;entryDy=0;" parent="1" source="AuHmO0e03ynSPj7Tn1H6-7" target="AuHmO0e03ynSPj7Tn1H6-9" edge="1">
          <mxGeometry width="50" height="50" relative="1" as="geometry">
            <mxPoint x="390" y="610" as="sourcePoint" />
            <mxPoint x="440" y="560" as="targetPoint" />
          </mxGeometry>
        </mxCell>
        <mxCell id="AuHmO0e03ynSPj7Tn1H6-16" value="" style="edgeStyle=orthogonalEdgeStyle;rounded=0;orthogonalLoop=1;jettySize=auto;html=1;" parent="1" source="AuHmO0e03ynSPj7Tn1H6-12" target="AuHmO0e03ynSPj7Tn1H6-15" edge="1">
          <mxGeometry relative="1" as="geometry" />
        </mxCell>
        <mxCell id="AuHmO0e03ynSPj7Tn1H6-12" value="Changes to monthly contributions are passed to db" style="rounded=1;whiteSpace=wrap;html=1;" parent="1" vertex="1">
          <mxGeometry x="640" y="710" width="120" height="60" as="geometry" />
        </mxCell>
        <mxCell id="AuHmO0e03ynSPj7Tn1H6-15" value="Monthly contributions are updated. New monthly contributions are returned" style="whiteSpace=wrap;html=1;rounded=1;" parent="1" vertex="1">
          <mxGeometry x="640" y="850" width="120" height="60" as="geometry" />
        </mxCell>
        <mxCell id="AuHmO0e03ynSPj7Tn1H6-17" value="" style="endArrow=classic;html=1;rounded=0;exitX=0.25;exitY=1;exitDx=0;exitDy=0;entryX=1;entryY=0.5;entryDx=0;entryDy=0;" parent="1" source="AuHmO0e03ynSPj7Tn1H6-15" target="AuHmO0e03ynSPj7Tn1H6-9" edge="1">
          <mxGeometry width="50" height="50" relative="1" as="geometry">
            <mxPoint x="390" y="610" as="sourcePoint" />
            <mxPoint x="440" y="560" as="targetPoint" />
          </mxGeometry>
        </mxCell>
        <mxCell id="AuHmO0e03ynSPj7Tn1H6-18" value="Is query valid?" style="rhombus;whiteSpace=wrap;html=1;" parent="1" vertex="1">
          <mxGeometry x="130" y="380" width="120" height="80" as="geometry" />
        </mxCell>
        <mxCell id="AuHmO0e03ynSPj7Tn1H6-24" value="" style="edgeStyle=orthogonalEdgeStyle;rounded=0;orthogonalLoop=1;jettySize=auto;html=1;" parent="1" source="AuHmO0e03ynSPj7Tn1H6-20" target="AuHmO0e03ynSPj7Tn1H6-23" edge="1">
          <mxGeometry relative="1" as="geometry" />
        </mxCell>
        <mxCell id="AuHmO0e03ynSPj7Tn1H6-25" value="Yes" style="edgeLabel;html=1;align=center;verticalAlign=middle;resizable=0;points=[];" parent="AuHmO0e03ynSPj7Tn1H6-24" vertex="1" connectable="0">
          <mxGeometry x="-0.26" y="5" relative="1" as="geometry">
            <mxPoint x="-17" y="5" as="offset" />
          </mxGeometry>
        </mxCell>
        <mxCell id="AuHmO0e03ynSPj7Tn1H6-20" value="Has session expired?" style="rhombus;whiteSpace=wrap;html=1;" parent="1" vertex="1">
          <mxGeometry x="320" y="110" width="160" height="80" as="geometry" />
        </mxCell>
        <mxCell id="AuHmO0e03ynSPj7Tn1H6-21" value="" style="endArrow=classic;html=1;rounded=0;exitX=0.5;exitY=1;exitDx=0;exitDy=0;entryX=0.5;entryY=0;entryDx=0;entryDy=0;" parent="1" source="AuHmO0e03ynSPj7Tn1H6-20" target="AuHmO0e03ynSPj7Tn1H6-31" edge="1">
          <mxGeometry width="50" height="50" relative="1" as="geometry">
            <mxPoint x="340" y="240" as="sourcePoint" />
            <mxPoint x="450" y="230" as="targetPoint" />
          </mxGeometry>
        </mxCell>
        <mxCell id="AuHmO0e03ynSPj7Tn1H6-43" value="No" style="edgeLabel;html=1;align=center;verticalAlign=middle;resizable=0;points=[];" parent="AuHmO0e03ynSPj7Tn1H6-21" vertex="1" connectable="0">
          <mxGeometry x="-0.4" relative="1" as="geometry">
            <mxPoint as="offset" />
          </mxGeometry>
        </mxCell>
        <mxCell id="AuHmO0e03ynSPj7Tn1H6-23" value="Create new session" style="rounded=1;whiteSpace=wrap;html=1;" parent="1" vertex="1">
          <mxGeometry x="580" y="120" width="120" height="60" as="geometry" />
        </mxCell>
        <mxCell id="AuHmO0e03ynSPj7Tn1H6-26" value="" style="endArrow=classic;html=1;rounded=0;exitX=0.25;exitY=1;exitDx=0;exitDy=0;entryX=1;entryY=0;entryDx=0;entryDy=0;" parent="1" source="AuHmO0e03ynSPj7Tn1H6-23" target="AuHmO0e03ynSPj7Tn1H6-31" edge="1">
          <mxGeometry width="50" height="50" relative="1" as="geometry">
            <mxPoint x="170" y="230" as="sourcePoint" />
            <mxPoint x="450" y="370" as="targetPoint" />
          </mxGeometry>
        </mxCell>
        <mxCell id="AuHmO0e03ynSPj7Tn1H6-27" value="Error Handler" style="rounded=1;whiteSpace=wrap;html=1;" parent="1" vertex="1">
          <mxGeometry x="340" y="570" width="120" height="60" as="geometry" />
        </mxCell>
        <mxCell id="AuHmO0e03ynSPj7Tn1H6-28" value="" style="endArrow=classic;html=1;rounded=0;exitX=1;exitY=1;exitDx=0;exitDy=0;entryX=0.25;entryY=0;entryDx=0;entryDy=0;" parent="1" source="AuHmO0e03ynSPj7Tn1H6-18" target="AuHmO0e03ynSPj7Tn1H6-27" edge="1">
          <mxGeometry width="50" height="50" relative="1" as="geometry">
            <mxPoint x="330" y="700" as="sourcePoint" />
            <mxPoint x="380" y="650" as="targetPoint" />
          </mxGeometry>
        </mxCell>
        <mxCell id="AuHmO0e03ynSPj7Tn1H6-29" value="No" style="edgeLabel;html=1;align=center;verticalAlign=middle;resizable=0;points=[];" parent="AuHmO0e03ynSPj7Tn1H6-28" vertex="1" connectable="0">
          <mxGeometry x="-0.7345" y="2" relative="1" as="geometry">
            <mxPoint as="offset" />
          </mxGeometry>
        </mxCell>
        <mxCell id="AuHmO0e03ynSPj7Tn1H6-30" value="" style="endArrow=classic;html=1;rounded=0;exitX=0.5;exitY=1;exitDx=0;exitDy=0;" parent="1" source="AuHmO0e03ynSPj7Tn1H6-27" target="AuHmO0e03ynSPj7Tn1H6-9" edge="1">
          <mxGeometry width="50" height="50" relative="1" as="geometry">
            <mxPoint x="330" y="610" as="sourcePoint" />
            <mxPoint x="380" y="560" as="targetPoint" />
          </mxGeometry>
        </mxCell>
        <mxCell id="AuHmO0e03ynSPj7Tn1H6-31" value="Does user have monthly contributions?" style="rhombus;whiteSpace=wrap;html=1;" parent="1" vertex="1">
          <mxGeometry x="335" y="240" width="130" height="80" as="geometry" />
        </mxCell>
        <mxCell id="AuHmO0e03ynSPj7Tn1H6-32" value="" style="endArrow=classic;html=1;rounded=0;exitX=0.5;exitY=1;exitDx=0;exitDy=0;entryX=0.5;entryY=0;entryDx=0;entryDy=0;" parent="1" source="AuHmO0e03ynSPj7Tn1H6-18" target="AuHmO0e03ynSPj7Tn1H6-5" edge="1">
          <mxGeometry width="50" height="50" relative="1" as="geometry">
            <mxPoint x="330" y="730" as="sourcePoint" />
            <mxPoint x="170" y="530" as="targetPoint" />
          </mxGeometry>
        </mxCell>
        <mxCell id="AuHmO0e03ynSPj7Tn1H6-33" value="Yes" style="edgeLabel;html=1;align=center;verticalAlign=middle;resizable=0;points=[];" parent="AuHmO0e03ynSPj7Tn1H6-32" vertex="1" connectable="0">
          <mxGeometry x="-0.5076" y="2" relative="1" as="geometry">
            <mxPoint x="-2" y="-42" as="offset" />
          </mxGeometry>
        </mxCell>
        <mxCell id="AuHmO0e03ynSPj7Tn1H6-34" value="" style="endArrow=classic;html=1;rounded=0;exitX=1;exitY=0.5;exitDx=0;exitDy=0;entryX=0.75;entryY=0;entryDx=0;entryDy=0;" parent="1" source="AuHmO0e03ynSPj7Tn1H6-31" target="AuHmO0e03ynSPj7Tn1H6-27" edge="1">
          <mxGeometry width="50" height="50" relative="1" as="geometry">
            <mxPoint x="330" y="730" as="sourcePoint" />
            <mxPoint x="680" y="290" as="targetPoint" />
            <Array as="points">
              <mxPoint x="710" y="280" />
            </Array>
          </mxGeometry>
        </mxCell>
        <mxCell id="AuHmO0e03ynSPj7Tn1H6-35" value="No" style="edgeLabel;html=1;align=center;verticalAlign=middle;resizable=0;points=[];" parent="AuHmO0e03ynSPj7Tn1H6-34" vertex="1" connectable="0">
          <mxGeometry x="-0.5294" y="2" relative="1" as="geometry">
            <mxPoint x="-138" y="2" as="offset" />
          </mxGeometry>
        </mxCell>
        <mxCell id="AuHmO0e03ynSPj7Tn1H6-36" value="" style="endArrow=classic;html=1;rounded=0;exitX=0.5;exitY=1;exitDx=0;exitDy=0;entryX=0.5;entryY=0;entryDx=0;entryDy=0;" parent="1" source="AuHmO0e03ynSPj7Tn1H6-31" target="AuHmO0e03ynSPj7Tn1H6-2" edge="1">
          <mxGeometry width="50" height="50" relative="1" as="geometry">
            <mxPoint x="330" y="640" as="sourcePoint" />
            <mxPoint x="310" y="380" as="targetPoint" />
          </mxGeometry>
        </mxCell>
        <mxCell id="AuHmO0e03ynSPj7Tn1H6-37" value="Yes" style="edgeLabel;html=1;align=center;verticalAlign=middle;resizable=0;points=[];" parent="AuHmO0e03ynSPj7Tn1H6-36" vertex="1" connectable="0">
          <mxGeometry x="-0.48" y="-1" relative="1" as="geometry">
            <mxPoint x="1" y="-6" as="offset" />
          </mxGeometry>
        </mxCell>
        <mxCell id="AuHmO0e03ynSPj7Tn1H6-38" value="Are changes valid?" style="rhombus;whiteSpace=wrap;html=1;" parent="1" vertex="1">
          <mxGeometry x="640" y="380" width="120" height="80" as="geometry" />
        </mxCell>
        <mxCell id="AuHmO0e03ynSPj7Tn1H6-40" value="" style="endArrow=classic;html=1;rounded=0;exitX=0;exitY=1;exitDx=0;exitDy=0;entryX=1;entryY=0.117;entryDx=0;entryDy=0;entryPerimeter=0;" parent="1" source="AuHmO0e03ynSPj7Tn1H6-38" target="AuHmO0e03ynSPj7Tn1H6-27" edge="1">
          <mxGeometry width="50" height="50" relative="1" as="geometry">
            <mxPoint x="330" y="730" as="sourcePoint" />
            <mxPoint x="380" y="680" as="targetPoint" />
          </mxGeometry>
        </mxCell>
        <mxCell id="AuHmO0e03ynSPj7Tn1H6-41" value="No" style="edgeLabel;html=1;align=center;verticalAlign=middle;resizable=0;points=[];" parent="AuHmO0e03ynSPj7Tn1H6-40" vertex="1" connectable="0">
          <mxGeometry x="-0.1463" y="3" relative="1" as="geometry">
            <mxPoint x="68" y="-51" as="offset" />
          </mxGeometry>
        </mxCell>
        <mxCell id="AuHmO0e03ynSPj7Tn1H6-44" value="" style="endArrow=classic;html=1;rounded=0;entryX=0.5;entryY=0;entryDx=0;entryDy=0;exitX=0.5;exitY=1;exitDx=0;exitDy=0;" parent="1" source="AuHmO0e03ynSPj7Tn1H6-38" target="AuHmO0e03ynSPj7Tn1H6-12" edge="1">
          <mxGeometry width="50" height="50" relative="1" as="geometry">
            <mxPoint x="660" y="590" as="sourcePoint" />
            <mxPoint x="710" y="540" as="targetPoint" />
          </mxGeometry>
        </mxCell>
        <mxCell id="AuHmO0e03ynSPj7Tn1H6-45" value="Yes" style="edgeLabel;html=1;align=center;verticalAlign=middle;resizable=0;points=[];" parent="AuHmO0e03ynSPj7Tn1H6-44" vertex="1" connectable="0">
          <mxGeometry x="-0.744" y="4" relative="1" as="geometry">
            <mxPoint x="-4" y="-22" as="offset" />
          </mxGeometry>
        </mxCell>
        <mxCell id="_PT-FEVVtgD8CScMroiJ-1" value="Authenticated User uses service" style="rounded=0;whiteSpace=wrap;html=1;" vertex="1" parent="1">
          <mxGeometry x="70" y="25" width="120" height="60" as="geometry" />
        </mxCell>
        <mxCell id="_PT-FEVVtgD8CScMroiJ-2" value="" style="endArrow=none;dashed=1;html=1;rounded=0;exitX=1.006;exitY=0.383;exitDx=0;exitDy=0;exitPerimeter=0;entryX=0;entryY=0.5;entryDx=0;entryDy=0;" edge="1" parent="1" source="_PT-FEVVtgD8CScMroiJ-1" target="AuHmO0e03ynSPj7Tn1H6-1">
          <mxGeometry width="50" height="50" relative="1" as="geometry">
            <mxPoint x="390" y="180" as="sourcePoint" />
            <mxPoint x="440" y="130" as="targetPoint" />
          </mxGeometry>
        </mxCell>
        <mxCell id="_PT-FEVVtgD8CScMroiJ-3" value="Data is returned" style="rounded=0;whiteSpace=wrap;html=1;" vertex="1" parent="1">
          <mxGeometry x="610" y="1030" width="120" height="60" as="geometry" />
        </mxCell>
        <mxCell id="_PT-FEVVtgD8CScMroiJ-4" value="" style="endArrow=none;dashed=1;html=1;dashPattern=1 3;strokeWidth=2;rounded=0;entryX=0;entryY=0.5;entryDx=0;entryDy=0;exitX=0.959;exitY=0.638;exitDx=0;exitDy=0;exitPerimeter=0;" edge="1" parent="1" source="AuHmO0e03ynSPj7Tn1H6-9" target="_PT-FEVVtgD8CScMroiJ-3">
          <mxGeometry width="50" height="50" relative="1" as="geometry">
            <mxPoint x="390" y="840" as="sourcePoint" />
            <mxPoint x="440" y="790" as="targetPoint" />
          </mxGeometry>
        </mxCell>
      </root>
    </mxGraphModel>
  </diagram>
</mxfile>
